# xmcd
#
# Track frame offsets:
#	150
#	12449
#	25116
#	35051
#	44789
#	55617
#	65396
#	76754
#	87675
#	98243
#	108368
#	116588
#	124253
#	135908
#	144134
#	156045
#	165227
#	177723
#	189404
#	196961
#
# Disc length: 2761 seconds
#
# Revision: 1
# Processed by: cddbd v1.5.2PL0 Copyright (c) Steve Scherf et al.
# Submitted via: audiograbber 1.83.01
#
DISCID=090ac714
DTITLE=Johnny Cash - June Carter - Johnny and June (1)
DYEAR=2009
DGENRE=
TTITLE0=I Walk The Line
TTITLE1=Folsom Prison Blues
TTITLE2=Hey Porter
TTITLE3=Rock Island Line
TTITLE4=I Heard That Lonesome Whistle Blow
TTITLE5=Ballad of the Teenage Queen
TTITLE6=Big River
TTITLE7=Cry! Cry! Cry1
TTITLE8=Train of Love
TTITLE9=The Ways of Woman in Love
TTITLE10=The Wreck of the Old ´97
TTITLE11=If the Good Lord´s Willing
TTITLE12=So Doggone Lonesome
TTITLE13=Guess Things Hapen That Way
TTITLE14=Home of the Blues
TTITLE15=I Couldn´t Keep From Crying
TTITLE16=Next In Line
TTITLE17=Doin´My Time
TTITLE18=Come In Stranger
TTITLE19=Get Rhythm
EXTD=
EXTT0=
EXTT1=
EXTT2=
EXTT3=
EXTT4=
EXTT5=
EXTT6=
EXTT7=
EXTT8=
EXTT9=
EXTT10=
EXTT11=
EXTT12=
EXTT13=
EXTT14=
EXTT15=
EXTT16=
EXTT17=
EXTT18=
EXTT19=
PLAYORDER=
